<?xml version="1.0" encoding="UTF-8"?>
<svg width="1300px" height="800px" viewBox="150 250 1050 315" version="1.1" xmlns="http://www.w3.org/2000/svg" xmlns:xlink="http://www.w3.org/1999/xlink">
    <!-- Generator: Sketch 52.6 (67491) - http://www.bohemiancoding.com/sketch -->
    <title>Logo</title>
    <desc>Created with Sketch.</desc>
    <g id="Logo" stroke="none" stroke-width="1" fill="none" fill-rule="evenodd">
        <g id="Group" transform="translate(194.000000, 284.000000)">
            <path d="M69,37 L157.130841,37 C184.672817,37 207,59.2421914 207,86.6793249 L207,138.07173 C207,165.508863 184.672817,187.751055 157.130841,187.751055 L121.448598,187.751055 L69,240 L69,37 Z M137.785047,136.35865 C149.656588,136.35865 159.280374,126.771498 159.280374,114.945148 C159.280374,103.118797 149.656588,93.5316456 137.785047,93.5316456 C125.913505,93.5316456 116.28972,103.118797 116.28972,114.945148 C116.28972,126.771498 125.913505,136.35865 137.785047,136.35865 Z" id="Combined-Shape" fill="#E2863B"></path>
            <path d="M49.4074074,37 L69,37 L69,139 L0,139 L0,86.7142857 C0,59.2578439 22.1204498,37 49.4074074,37 Z" id="Rectangle" fill="#F3D237"></path>
            <path d="M26,139 L69,139 L69,188 C45.2517558,188 26,168.756099 26,145.017544 L26,139 Z" id="Rectangle" fill="#F0A428"></path>
            <path d="M809.78763,144.529412 L809.78763,76.1131222 L790,76.1131222 L861.407534,0 L861.407534,40.1945701 L899.26213,40.1945701 L899.26213,76.1131222 L861.407534,76.1131222 L861.407534,129.135747 C861.407534,141.484887 867.825608,146.239819 878.614168,146.239819 C885.15269,146.239819 892.379476,145.384615 901,141.963801 L901,175.316742 C889.884514,183.441176 877.048365,189 857.105875,189 C832.586421,189 809.78763,178.652036 809.78763,144.529412 Z" id="arrot" fill="#E2863B"></path>
            <path d="M360.375,92.7303371 L360.375,142.58427 C360.375,150.096742 364.276562,153.758427 369.828125,153.758427 C374.073437,153.758427 376.754688,152.812921 381,151.179775 L381,179.544944 C373.489063,184.771011 363.365625,189 348.34375,189 C330.382813,189 316.117188,179.682472 311.21875,163.024382 C302.728125,180.009101 285.592188,189 262.40625,189 C233.995313,189 216,174.284494 216,149.460674 C216,121.370562 236.109375,109.130562 267.785938,103.577865 L308.8125,97.0280899 L308.8125,94.4494382 C308.8125,82.4157303 301.078125,75.5393258 289.90625,75.5393258 C278.734375,75.5393258 271.429688,79.8370787 269.28125,90.1516854 L221.15625,90.1516854 C225.728125,58.1420225 249.584375,36 293.34375,36 C331.878125,36 360.375,52.2283146 360.375,92.7303371 Z M308.8125,125.393258 L308.8125,122.814607 L287.328125,126.682584 C274.592187,129.295618 266.703125,133.112022 266.703125,142.58427 C266.703125,150.096742 272.495312,154.617978 281.3125,154.617978 C296.334375,154.617978 308.8125,144.337753 308.8125,125.393258 Z" id="Combined-Shape" fill="#E2863B"></path>
            <path d="M504,41.137931 L504,90.8045977 C496.85361,86.5743678 485.860479,84.8103448 475.790566,84.8103448 C456.300412,84.8103448 444.161807,93.8017241 444.161807,118.206897 L444.161807,185 L392.017097,185 L392,39.4252874 L444.161807,39.4252874 L444.161807,65.9712644 C449.359182,49.7011494 465.173561,36 484.33888,36 C493.109449,36 500.426805,38.2093103 504,41.137931 Z" id="Path" fill="#E2863B"></path>
            <path d="M626,41.137931 L626,90.8045977 C618.85361,86.5743678 607.860479,84.8103448 597.790566,84.8103448 C578.300412,84.8103448 566.161807,93.8017241 566.161807,118.206897 L566.161807,185 L514.017097,185 L514,39.4252874 L566.161807,39.4252874 L566.161807,65.9712644 C571.359182,49.7011494 587.173561,36 606.33888,36 C615.109449,36 622.426805,38.2093103 626,41.137931 Z" id="Path" fill="#E2863B"></path>
            <path d="M791,112.072626 C791,157.220447 758.426486,189 711.07027,189 C663.387459,189 632,157.220447 632,112.072626 C632,67.2496089 663.387459,36 711.07027,36 C758.426486,36 791,67.2496089 791,112.072626 Z M685.286486,112.072626 C685.286486,133.834525 692.454378,148.826816 711.07027,148.826816 C729.359568,148.826816 737.713514,133.834525 737.713514,112.072626 C737.713514,90.3107263 729.359568,75.3184358 711.07027,75.3184358 C692.454378,75.3184358 685.286486,90.3107263 685.286486,112.072626 Z" id="Combined-Shape" fill="#E2863B"></path>
        </g>
    </g>
</svg>
